<svg height='100px' width='100px'  fill="#0e4c92" xmlns="http://www.w3.org/2000/svg" xmlns:xlink="http://www.w3.org/1999/xlink" version="1.1" x="0px" y="0px" viewBox="0 0 100 100" enable-background="new 0 0 100 100" xml:space="preserve"><path d="M45.1,84.9l52.8-30.7l-5.7-3.3L45.1,78.3l-7.9-4.6v0L8.1,57v-7.7l26,15v0l11,6.3l52.8-30.7l-5.7-3.3L45.1,64l-7.9-4.6v0  l-29-16.7V35L45,56.3l52.8-30.7L55,0.8L2.1,31.5h0v0l0,0l0,0v14.3h0l0,0h0v14.3h0l0,0h0v14.3h0l32,18.4v0l11,6.3l52.8-30.7l-5.7-3.3  L45.1,92.6L37.2,88v0l-29-16.7v-7.7l26,15v0L45.1,84.9z M39.4,29.3c1.6-0.8,3.1-1.2,4.4-1.4c1.8-0.2,4.3-0.1,7.6,0.2  c1.6,0.2,3.2,0.2,4.7,0c1.5-0.2,2.8-0.7,4-1.3c1.2-0.7,1.9-1.5,2-2.3c0.1-0.8-0.5-1.6-1.7-2.3c-1-0.6-2.1-0.9-3.4-0.9  c-0.8,0-1.6,0.1-2.4,0.3c-0.9,0.3-2.1,0.2-2.9-0.3c0,0,0,0,0,0L47,18.5c-0.6-0.4-0.6-0.9,0.1-1.2c2.7-1.4,5.6-1.9,8.8-1.7  c3.6,0.3,7,1.4,10.3,3.3c3.5,2,5.4,4.2,5.7,6.4c0.3,2.2-1.1,4.2-4.1,5.9c-1.8,1.1-4.1,1.7-6.8,2c-2.7,0.3-5.3,0.2-7.9-0.3  c-1.6-0.2-2.9-0.2-3.9,0.1c-0.7,0.2-1.5,0.4-2.3,0.8c-0.6,0.3-1.6,0.3-2.2-0.1l-5.2-3C38.7,30.3,38.7,29.6,39.4,29.3z M30.6,34.4  l2.7-1.6c0.9-0.5,2.4-0.5,3.3,0l4.2,2.4c0.9,0.5,0.9,1.4,0,1.9l-2.7,1.6c-0.9,0.5-2.4,0.5-3.3,0l-4.2-2.4  C29.7,35.8,29.7,34.9,30.6,34.4z"></path></svg>