<svg height='100px' width='100px'  fill="#0e4c92" xmlns="http://www.w3.org/2000/svg" xmlns:xlink="http://www.w3.org/1999/xlink" version="1.1" baseProfile="tiny" x="0px" y="0px" viewBox="0 0 24 24" overflow="scroll" xml:space="preserve"><path d="M21.4814453,7.7675781c0.0107422-0.2568359-0.1113281-0.5009766-0.3222656-0.6464844l-9.3642578-6.4873047  c-0.2226563-0.1552734-0.5126953-0.1767578-0.7578125-0.0566406L2.9365234,4.5585938  C2.7001953,4.6748047,2.5419922,4.90625,2.5205078,5.1689453C2.4980469,5.4316406,2.6152344,5.6865234,2.8291016,5.8398438  l2.0087891,1.4462891L2.9492188,8.1699219C2.7089844,8.2832031,2.5458984,8.515625,2.5205078,8.7802734  C2.4960938,9.0449219,2.6132813,9.3027344,2.8291016,9.4580078l1.7060547,1.2275391l-1.6347656,0.9189453  c-0.2236328,0.1259766-0.3671875,0.3564453-0.3818359,0.6123047c-0.0136719,0.2558594,0.1035156,0.5009766,0.3105469,0.6503906  l1.7724609,1.2753906l-1.7011719,0.9550781c-0.2236328,0.1259766-0.3671875,0.3564453-0.3818359,0.6123047  c-0.0136719,0.2558594,0.1025391,0.5009766,0.3105469,0.6503906l9.7226563,6.9980469  C12.6826172,23.4521484,12.8359375,23.5,12.9902344,23.5c0.1298828,0,0.2597656-0.0332031,0.3759766-0.1015625l7.7421875-4.4912109  c0.2226563-0.1289063,0.3632813-0.3623047,0.3730469-0.6181641c0.0107422-0.2568359-0.1113281-0.5009766-0.3222656-0.6464844  l-1.7734375-1.2294922l1.7226563-1c0.2226563-0.1289063,0.3632813-0.3623047,0.3730469-0.6181641  c0.0107422-0.2568359-0.1113281-0.5009766-0.3222656-0.6464844l-1.7070313-1.1826172l1.65625-0.9619141  c0.2226563-0.1289063,0.3632813-0.3623047,0.3730469-0.6181641c0.0107422-0.2568359-0.1113281-0.5009766-0.3222656-0.6464844  l-1.8710938-1.296875l1.8203125-1.0566406C21.3310547,8.2568359,21.4716797,8.0234375,21.4814453,7.7675781z M13.0341797,21.8574219  l-8.3740234-6.0273438l1.2832031-0.7207031l6.6083984,4.7558594c0.2412109,0.1728516,0.5595703,0.1894531,0.8144531,0.0400391  l4.5859375-2.6601563l1.3818359,0.9580078L13.0341797,21.8574219z M13.0341797,18.3642578l-8.3740234-6.0273438l1.2177734-0.6845703  l6.6738281,4.8037109c0.2412109,0.1728516,0.5595703,0.1894531,0.8144531,0.0400391l4.6523438-2.6992188l1.3164063,0.9121094  L13.0341797,18.3642578z M19.3349609,11.2998047l-6.3007813,3.6552734L4.7421875,8.9873047l1.4902344-0.6982422l6.3193359,4.5488281  c0.2412109,0.1728516,0.5595703,0.1894531,0.8144531,0.0400391l4.4882813-2.6035156L19.3349609,11.2998047z M13.0341797,11.3369141  L4.7207031,5.3535156l6.5830078-3.2363281l8.03125,5.5644531L13.0341797,11.3369141z"></path></svg>